<svg width="595" height="756" viewBox="0 0 595 756" fill="none" xmlns="http://www.w3.org/2000/svg">
<path fill-rule="evenodd" clip-rule="evenodd" d="M46.7946 755.507H0C0 755.507 187.848 120.101 207.75 52.8045C217.062 21.318 243.757 0 273.877 0H357.534C382.762 0 403.817 11.711 416.908 31.5005C429.99 51.2911 433.701 76.6138 426.073 102.447C418.434 128.28 411.219 152.666 404.614 175.01C395.696 205.178 370.99 225.966 342.425 227.657C342.425 227.657 342.277 227.604 382.3 92.2255C385.834 80.2787 384.544 68.585 378.993 60.1982C373.451 51.8125 364.1 46.8494 351.727 46.8494H279.941C265.845 46.8494 253.354 56.8253 248.993 71.5598L46.7946 755.507Z" fill="#F0145A"/>
<path fill-rule="evenodd" clip-rule="evenodd" d="M342.416 227.659H248.098L289.656 88.7553L336.672 89.0606L309.372 180.666L356.249 180.697L342.416 227.659Z" fill="url(#paint0_linear_1_557)"/>
<defs>
<linearGradient id="paint0_linear_1_557" x1="248.091" y1="201.054" x2="357.031" y2="252.865" gradientUnits="userSpaceOnUse">
<stop stop-color="#F0145A"/>
<stop offset="1" stop-color="#693264"/>
</linearGradient>
</defs>
</svg>
